<?xml version="1.0" standalone="no"?>
<svg xmlns:xlink="http://www.w3.org/1999/xlink" id="wave" style="transform:rotate(180deg); transition: 0.3s" viewBox="0 0 1440 100" version="1.1" xmlns="http://www.w3.org/2000/svg"><defs><linearGradient id="sw-gradient-0" x1="0" x2="0" y1="1" y2="0"><stop stop-color="rgba(255, 249, 234, 1)" offset="0%"/><stop stop-color="rgba(255, 249, 234, 1)" offset="100%"/></linearGradient></defs><path style="transform:translate(0, 0px); opacity:1" fill="url(#sw-gradient-0)" d="M0,70L26.7,71.7C53.3,73,107,77,160,76.7C213.3,77,267,73,320,65C373.3,57,427,43,480,43.3C533.3,43,587,57,640,65C693.3,73,747,77,800,75C853.3,73,907,67,960,53.3C1013.3,40,1067,20,1120,16.7C1173.3,13,1227,27,1280,28.3C1333.3,30,1387,20,1440,18.3C1493.3,17,1547,23,1600,35C1653.3,47,1707,63,1760,58.3C1813.3,53,1867,27,1920,15C1973.3,3,2027,7,2080,8.3C2133.3,10,2187,10,2240,20C2293.3,30,2347,50,2400,60C2453.3,70,2507,70,2560,60C2613.3,50,2667,30,2720,23.3C2773.3,17,2827,23,2880,36.7C2933.3,50,2987,70,3040,73.3C3093.3,77,3147,63,3200,55C3253.3,47,3307,43,3360,45C3413.3,47,3467,53,3520,51.7C3573.3,50,3627,40,3680,41.7C3733.3,43,3787,57,3813,63.3L3840,70L3840,100L3813.3,100C3786.7,100,3733,100,3680,100C3626.7,100,3573,100,3520,100C3466.7,100,3413,100,3360,100C3306.7,100,3253,100,3200,100C3146.7,100,3093,100,3040,100C2986.7,100,2933,100,2880,100C2826.7,100,2773,100,2720,100C2666.7,100,2613,100,2560,100C2506.7,100,2453,100,2400,100C2346.7,100,2293,100,2240,100C2186.7,100,2133,100,2080,100C2026.7,100,1973,100,1920,100C1866.7,100,1813,100,1760,100C1706.7,100,1653,100,1600,100C1546.7,100,1493,100,1440,100C1386.7,100,1333,100,1280,100C1226.7,100,1173,100,1120,100C1066.7,100,1013,100,960,100C906.7,100,853,100,800,100C746.7,100,693,100,640,100C586.7,100,533,100,480,100C426.7,100,373,100,320,100C266.7,100,213,100,160,100C106.7,100,53,100,27,100L0,100Z"/></svg>